<svg width="65" height="65" viewBox="0 0 65 65" fill="none" xmlns="http://www.w3.org/2000/svg">
<path d="M56.875 22.3438V42.6563C56.875 43.7337 56.447 44.767 55.6851 45.5289C54.9232 46.2908 53.8899 46.7188 52.8125 46.7188H32.5V56.875C32.5003 57.277 32.3814 57.67 32.1582 58.0044C31.935 58.3387 31.6176 58.5993 31.2463 58.7532C30.8749 58.907 30.4663 58.9473 30.072 58.8687C29.6778 58.7902 29.3157 58.5965 29.0316 58.3121L4.65664 33.9371C4.46778 33.7485 4.31795 33.5245 4.21573 33.2779C4.11351 33.0313 4.0609 32.767 4.0609 32.5C4.0609 32.2331 4.11351 31.9688 4.21573 31.7222C4.31795 31.4756 4.46778 31.2516 4.65664 31.0629L29.0316 6.6879C29.3157 6.40351 29.6778 6.20979 30.072 6.13128C30.4663 6.05277 30.8749 6.093 31.2463 6.24687C31.6176 6.40075 31.935 6.66134 32.1582 6.99567C32.3814 7.33001 32.5003 7.72304 32.5 8.12501V18.2813H52.8125C53.8899 18.2813 54.9232 18.7093 55.6851 19.4711C56.447 20.233 56.875 21.2663 56.875 22.3438Z" fill="#686868"/>
</svg>
